<?xml version="1.0" encoding="utf-8"?>
<!-- Generator: Adobe Illustrator 15.0.0, SVG Export Plug-In . SVG Version: 6.00 Build 0)  -->
<!DOCTYPE svg PUBLIC "-//W3C//DTD SVG 1.1//EN" "http://www.w3.org/Graphics/SVG/1.1/DTD/svg11.dtd">
<svg version="1.1" id="Layer_1" xmlns="http://www.w3.org/2000/svg" xmlns:xlink="http://www.w3.org/1999/xlink" x="0px" y="0px"
	 width="32px" height="32px" viewBox="-8 -8 32 32" enable-background="new -8 -8 32 32" xml:space="preserve">
<path d="M6.002,5.5c0,0.829-0.671,1.5-1.5,1.5c-0.828,0-1.5-0.671-1.5-1.5S3.674,4,4.502,4C5.331,4,6.002,4.671,6.002,5.5z"/>
<path d="M2.002,1c-1.104,0-2,0.896-2,2v10c0,1.104,0.896,2,2,2h12c1.104,0,2-0.896,2-2V3c0-1.104-0.896-2-2-2H2.002z M14.002,2
	c0.553,0,1,0.448,1,1v6.5l-3.777-1.947c-0.191-0.097-0.424-0.059-0.576,0.093l-3.71,3.709l-2.66-1.771
	C4.08,9.452,3.816,9.479,3.648,9.646L1.002,12V3c0-0.552,0.448-1,1-1H14.002z"/>
</svg>
